<?xml version="1.0" encoding="UTF-8"?>
<svg xmlns="http://www.w3.org/2000/svg" xmlns:xlink="http://www.w3.org/1999/xlink" width="64pt" height="64pt" viewBox="0 0 64 64" version="1.1">
<g id="surface15332043">
<path style=" stroke:none;fill-rule:nonzero;fill:rgb(80.000001%,80.000001%,80.000001%);fill-opacity:1;" d="M 18 8 L 18 10 L 10 10 L 10 54 L 54 54 L 54 10 L 46 10 L 46 8 L 42 8 L 42 10 L 22 10 L 22 8 Z M 14 14 L 18 14 L 18 16 L 22 16 L 22 14 L 42 14 L 42 16 L 46 16 L 46 14 L 50 14 L 50 18 L 14 18 Z M 14 22 L 50 22 L 50 50 L 14 50 Z M 26 26 L 26 30 L 30 30 L 30 26 Z M 34 26 L 34 30 L 38 30 L 38 26 Z M 42 26 L 42 30 L 46 30 L 46 26 Z M 18 34 L 18 38 L 22 38 L 22 34 Z M 26 34 L 26 38 L 30 38 L 30 34 Z M 34 34 L 34 38 L 38 38 L 38 34 Z M 42 34 L 42 38 L 46 38 L 46 34 Z M 18 42 L 18 46 L 22 46 L 22 42 Z M 26 42 L 26 46 L 30 46 L 30 42 Z M 34 42 L 34 46 L 38 46 L 38 42 Z M 34 42 "/>
</g>
</svg>
